<svg width="1013" height="606" viewBox="0 0 1013 606" fill="none" xmlns="http://www.w3.org/2000/svg">
<path d="M350.2 2.17999C185.4 8.17999 70.8668 166.347 34.2001 244.68C26.3668 244.68 9.20013 249.88 3.20014 270.68C-15.1999 435.88 182.533 519.513 283.7 540.68C285.033 550.18 295.6 571.78 327.2 582.18C358.8 592.58 376.7 572.847 381.7 561.68C410.2 596.18 446.2 609.68 495.2 602.68C544.2 595.68 506.7 545.68 520.2 540.68C714.2 535.48 845.7 382.847 887.2 307.18C901.533 311.013 940 313.08 979.2 290.68C1036.7 251.18 1001.7 173.68 987.2 168.68C972.7 163.68 899.7 258.68 895.2 247.68C894.7 200.18 866.2 106.18 828.7 127.18C767.1 192.38 815.7 259.347 847.7 284.68C845.7 290.18 834.1 303.78 803.7 314.18C710.9 330.58 653.367 255.013 636.2 215.18C609.533 141.68 515 -3.82001 350.2 2.17999Z" stroke="black" stroke-width="3" stroke-linejoin="round"/>
<path d="M34.7001 243.68C125.367 293.847 318.3 379.78 364.7 322.18" stroke="black" stroke-width="3"/>
<circle cx="293.7" cy="225.68" r="20" fill="black"/>
</svg>
