<svg width="50" height="51" viewBox="0 0 50 51" fill="none" xmlns="http://www.w3.org/2000/svg">
<g id="mage:instagram-circle">
<path id="Vector" d="M28.3541 25.5645C28.3415 26.2245 28.1332 26.8659 27.7557 27.4074C27.3782 27.9488 26.8484 28.366 26.2335 28.6061C25.6186 28.8461 24.9463 28.8982 24.3018 28.7557C23.6573 28.6133 23.0696 28.2826 22.6132 27.8057C22.1568 27.3289 21.8522 26.7272 21.7381 26.0771C21.6241 25.4269 21.7056 24.7575 21.9724 24.1537C22.2392 23.55 22.6792 23.039 23.2368 22.6856C23.7943 22.3322 24.4442 22.1523 25.1041 22.1687C25.9809 22.2012 26.8107 22.5739 27.4174 23.2078C28.0241 23.8418 28.3601 24.6871 28.3541 25.5645Z" fill="white"/>
<path id="Vector_2" d="M30.7563 15.127H19.4542C18.3359 15.127 17.2634 15.5713 16.4726 16.362C15.6818 17.1528 15.2375 18.2254 15.2375 19.3437V30.8999C15.2375 31.4537 15.3466 32.002 15.5585 32.5136C15.7704 33.0252 16.081 33.49 16.4726 33.8816C16.8641 34.2731 17.329 34.5837 17.8406 34.7956C18.3522 35.0075 18.9005 35.1166 19.4542 35.1166H30.7563C31.31 35.1166 31.8584 35.0075 32.3699 34.7956C32.8815 34.5837 33.3464 34.2731 33.7379 33.8816C34.1295 33.49 34.4401 33.0252 34.652 32.5136C34.8639 32.002 34.973 31.4537 34.973 30.8999V19.3645C34.9752 18.8092 34.8677 18.2589 34.6569 17.7451C34.446 17.2314 34.1358 16.7643 33.7441 16.3706C33.3524 15.977 32.8868 15.6645 32.3741 15.4511C31.8614 15.2377 31.3116 15.1276 30.7563 15.127ZM25.1042 31.2166C23.9854 31.2419 22.8844 30.9332 21.9418 30.33C20.9992 29.7267 20.2577 28.8563 19.8119 27.8298C19.3661 26.8034 19.2363 25.6673 19.439 24.5667C19.6418 23.4661 20.1678 22.4509 20.9501 21.6506C21.7323 20.8503 22.7353 20.3012 23.8309 20.0734C24.9266 19.8456 26.0653 19.9495 27.1017 20.3717C28.1381 20.7939 29.0252 21.5154 29.6498 22.444C30.2744 23.3726 30.6081 24.4662 30.6084 25.5853C30.6169 26.3166 30.4813 27.0423 30.2093 27.7211C29.9372 28.3998 29.5341 29.0184 29.023 29.5413C28.5118 30.0643 27.9027 30.4814 27.2303 30.7688C26.5579 31.0563 25.8354 31.2084 25.1042 31.2166ZM31.2209 19.9562C31.0834 19.9562 30.9473 19.9288 30.8206 19.8756C30.6938 19.8224 30.579 19.7444 30.4827 19.6462C30.3865 19.548 30.3108 19.4316 30.2601 19.3039C30.2095 19.1761 30.1848 19.0395 30.1875 18.902C30.1875 18.6224 30.2986 18.3543 30.4963 18.1566C30.694 17.9589 30.9621 17.8478 31.2417 17.8478C31.5213 17.8478 31.7894 17.9589 31.9871 18.1566C32.1848 18.3543 32.2959 18.6224 32.2959 18.902C32.3 19.0508 32.2719 19.1988 32.2136 19.3358C32.1552 19.4727 32.068 19.5955 31.9578 19.6956C31.8476 19.7957 31.717 19.8708 31.5751 19.9158C31.4332 19.9608 31.2832 19.9745 31.1355 19.9562H31.2209Z" fill="white"/>
<path id="Vector_3" d="M25.1043 4.22493C19.5789 4.1973 14.2689 6.36574 10.3424 10.2532C6.41582 14.1407 4.19439 19.4288 4.16676 24.9541C4.13914 30.4794 6.30758 35.7895 10.195 39.716C14.0825 43.6425 19.3706 45.864 24.8959 45.8916C27.6318 45.9053 30.3436 45.38 32.8764 44.3456C35.4093 43.3113 37.7136 41.7882 39.6578 39.8633C41.6021 37.9384 43.1481 35.6495 44.2077 33.1271C45.2673 30.6047 45.8198 27.8983 45.8334 25.1624C45.8471 22.4266 45.3218 19.7148 44.2874 17.1819C43.2531 14.6491 41.73 12.3448 39.8051 10.4005C37.8803 8.4563 35.5913 6.91025 33.0689 5.85064C30.5465 4.79103 27.8401 4.23861 25.1043 4.22493ZM37.7563 30.6874C37.7622 31.6221 37.5824 32.5486 37.2274 33.4132C36.8725 34.2779 36.3495 35.0635 35.6887 35.7245C35.0278 36.3855 34.2424 36.9088 33.3778 37.264C32.5133 37.6192 31.5868 37.7992 30.6522 37.7937H19.5605C18.626 37.7989 17.6998 37.6188 16.8354 37.2636C15.971 36.9085 15.1856 36.3854 14.5247 35.7247C13.8638 35.064 13.3405 34.2788 12.9851 33.4145C12.6297 32.5502 12.4493 31.624 12.4543 30.6895V19.5958C12.4485 18.6611 12.6282 17.7346 12.9832 16.8699C13.3381 16.0053 13.8611 15.2197 14.522 14.5587C15.1828 13.8977 15.9682 13.3744 16.8328 13.0192C17.6973 12.664 18.6238 12.484 19.5584 12.4895H30.6522C31.5867 12.484 32.5129 12.664 33.3774 13.019C34.2418 13.3741 35.0271 13.8972 35.6879 14.558C36.3487 15.2187 36.8718 16.0041 37.2268 16.8685C37.5819 17.7329 37.7619 18.6592 37.7563 19.5937V30.6874Z" fill="white"/>
</g>
</svg>
