<svg width="50" height="51" viewBox="0 0 50 51" fill="none" xmlns="http://www.w3.org/2000/svg">
<g id="entypo-social:youtube-with-circle">
<path id="Vector" d="M29.0075 24.6408L23.3925 22.0208C22.9025 21.7933 22.5 22.0483 22.5 22.5908V27.5258C22.5 28.0683 22.9025 28.3233 23.3925 28.0958L29.005 25.4758C29.4975 25.2458 29.4975 24.8708 29.0075 24.6408ZM25 1.05829C11.745 1.05829 1 11.8033 1 25.0583C1 38.3133 11.745 49.0583 25 49.0583C38.255 49.0583 49 38.3133 49 25.0583C49 11.8033 38.255 1.05829 25 1.05829ZM25 34.8083C12.715 34.8083 12.5 33.7008 12.5 25.0583C12.5 16.4158 12.715 15.3083 25 15.3083C37.285 15.3083 37.5 16.4158 37.5 25.0583C37.5 33.7008 37.285 34.8083 25 34.8083Z" fill="white"/>
</g>
</svg>
