<?xml version="1.0" encoding="UTF-8"?>
<svg id="_레이어_1" data-name="레이어 1" xmlns="http://www.w3.org/2000/svg" version="1.1" viewBox="0 0 20 20">
  <defs>
    <style>
      .cls-1 {
        fill: #f5b3b4;
        stroke-width: 0px;
      }
    </style>
  </defs>
  <path class="cls-1" d="M3.11,1.85c-.4.08-.83.25-1.19.49-.21.14-.51.42-.64.62-.42.61-.51,1.4-.26,2.41.41,1.68,1.88,4.12,3.46,5.76l.23.24-.12.23c-.81,1.56-.96,3.27-.4,4.41.5,1.01,1.48,1.63,3.05,1.95.84.17,1.48.22,2.74.22.95,0,1.26-.01,1.87-.08,2.1-.23,3.37-.91,3.97-2.11.24-.47.36-1.21.32-1.86-.06-.85-.28-1.61-.7-2.46-.1-.2-.14-.31-.13-.32.01,0,.16-.15.33-.33,1.06-1.13,2.01-2.52,2.71-3.96.87-1.78,1.01-3.1.43-4.02-.12-.2-.41-.49-.62-.65-.21-.15-.63-.36-.89-.44-.62-.19-1.19-.16-1.72.11-.29.14-.48.29-.76.57-.45.46-.77.91-1.16,1.7-.53,1.06-1.01,2.47-1.28,3.74-.04.18-.07.33-.08.33,0,0-.1-.03-.22-.08-.43-.18-.88-.32-1.34-.39-.33-.05-1.06-.05-1.39,0-.46.07-.91.2-1.32.38q-.25.11-.27-.03c-.05-.32-.3-1.29-.47-1.82-.56-1.76-1.24-3.07-1.99-3.82-.42-.42-.78-.64-1.25-.76-.2-.05-.69-.07-.9-.03Z"/>
</svg>